IKResults
version=1
nRows=14
nColumns=40
inDegrees=yes

Units are S.I. units (second, meters, Newtons, ...)
Angles are in degrees.

endheader
time	pelvis_tilt	pelvis_list	pelvis_rotation	pelvis_tx	pelvis_ty	pelvis_tz	hip_flexion_r	hip_adduction_r	hip_rotation_r	knee_angle_r	knee_angle_r_beta	ankle_angle_r	subtalar_angle_r	mtp_angle_r	hip_flexion_l	hip_adduction_l	hip_rotation_l	knee_angle_l	knee_angle_l_beta	ankle_angle_l	subtalar_angle_l	mtp_angle_l	lumbar_extension	lumbar_bending	lumbar_rotation	arm_flex_r	arm_add_r	arm_rot_r	elbow_flex_r	pro_sup_r	wrist_flex_r	wrist_dev_r	arm_flex_l	arm_add_l	arm_rot_l	elbow_flex_l	pro_sup_l	wrist_flex_l	wrist_dev_l
      0.58000000	     12.98087246	     -5.19829108	      5.85164884	     -0.38581670	      0.94412011	      1.43138000	      2.63522211	      4.09388112	    -22.44251866	    -19.92882489	     -0.34782361	      1.28563740	      0.01115425	     -3.25609902	    -22.54711374	      8.88068049	     -0.42545022	    -38.79965916	     -0.67718180	     -5.29853513	     15.99104218	     -2.52841285	    -21.14012919	      7.17508593	     -6.79382101	     -8.05852201	    -10.41741643	      5.40892336	     18.45713271	     89.95437384	      0.00000000	      0.00000000	     10.89298071	      8.74074666	     17.05760174	     42.13449607	     89.95437384	      0.00000000	      0.00000000
      0.59000000	     13.13865141	     -5.25548810	      6.21998077	     -0.37524486	      0.94582258	      1.43285201	      1.30654928	      4.51782105	    -22.45359119	    -19.09910577	     -0.33334228	      1.95143261	      1.27312138	     -3.27718950	    -21.50295299	      9.10372207	     -0.79908164	    -40.71552192	     -0.71061991	     -4.04629091	     17.05993385	     -2.22934052	    -21.21260453	      7.29525076	     -6.62513196	     -7.49943692	    -10.47665318	      5.09256200	     19.18152557	     89.95437384	      0.00000000	      0.00000000	     10.62584509	      8.43459115	     16.93201873	     40.46924203	     89.95437384	      0.00000000	      0.00000000
      0.60000000	     13.37053329	     -4.98012425	      5.99826291	     -0.36491715	      0.94751419	      1.43463957	      0.22468882	      4.38721826	    -22.52251584	    -18.96391874	     -0.33098282	      2.29918171	      1.48599621	     -3.24401378	    -20.73672064	      8.80260224	     -0.55883921	    -42.14470712	     -0.73556390	     -3.28939723	     17.13897999	     -2.14287500	    -21.53356561	      6.91453670	     -6.12319868	     -6.68100019	    -10.58089708	      5.00672837	     19.67651123	     89.95437384	      0.00000000	      0.00000000	     10.01361752	      8.15405098	     16.86271798	     39.47265212	     89.95437384	      0.00000000	      0.00000000
      0.61000000	     13.47461657	     -5.16998330	      6.23551829	     -0.35439860	      0.94877520	      1.43618065	     -0.90480156	      4.86949775	    -22.67673158	    -18.35420767	     -0.32034136	      2.72697525	      2.80692912	     -3.00815429	    -19.66514903	      9.07660667	     -0.86765098	    -43.64251039	     -0.76170550	     -1.47860847	     17.41349009	     -1.10638491	    -21.55867514	      7.13254997	     -5.78366581	     -6.10763255	    -10.69678013	      4.31754943	     20.53373728	     89.95437384	      0.00000000	      0.00000000	      9.70276470	      7.85312753	     16.78538090	     37.72963330	     89.95437384	      0.00000000	      0.00000000
      0.62000000	     13.70559236	     -4.96689930	      6.03866585	     -0.34423266	      0.95026164	      1.43792226	     -2.06567981	      4.90352731	    -22.37469322	    -18.01256828	     -0.31437862	      3.35533427	      3.17658634	     -2.97672847	    -18.93084713	      8.75216965	     -0.88962773	    -44.62625847	     -0.77887514	     -0.16823648	     17.61072695	     -0.83075234	    -21.84034208	      6.82917783	     -5.36349589	     -5.25915292	    -10.84415495	      4.13078933	     21.20824579	     89.95437384	      0.00000000	      0.00000000	      9.22049064	      7.67044460	     16.72972678	     36.21956604	     89.95437384	      0.00000000	      0.00000000
      0.63000000	     13.91508511	     -4.72023640	      5.76402611	     -0.33417811	      0.95161116	      1.43978257	     -3.11693929	      4.81509975	    -22.37714723	    -17.86285109	     -0.31176557	      3.69497594	      3.22092594	     -2.95392641	    -18.09846576	      8.45328651	     -0.58347738	    -45.49070453	     -0.79396257	      0.58544273	     17.68004535	     -0.74786679	    -22.13809519	      6.41807070	     -4.94647487	     -4.30486512	    -10.98927598	      4.03971027	     21.78682220	     89.95437384	      0.00000000	      0.00000000	      8.57677214	      7.54482945	     16.71388751	     35.00345811	     89.95437384	      0.00000000	      0.00000000
      0.64000000	     14.11111650	     -4.55953321	      5.54643082	     -0.32413839	      0.95285842	      1.44141171	     -4.27676615	      4.89442709	    -22.09974620	    -17.40362432	     -0.30375055	      4.22949299	      3.57968382	     -2.95986171	    -17.28847418	      8.12228673	     -0.65142924	    -46.12381070	     -0.80501236	      1.94290334	     17.80236555	     -0.62138136	    -22.37937100	      6.14184778	     -4.49842924	     -3.42522420	    -11.19747877	      3.95096395	     22.48332245	     89.95437384	      0.00000000	      0.00000000	      8.19071033	      7.36668890	     16.75232875	     33.20697771	     89.95437384	      0.00000000	      0.00000000
      0.65000000	     14.22015456	     -4.35019857	      5.28752704	     -0.31436949	      0.95389607	      1.44302312	     -5.25731283	      4.85031585	    -22.03731784	    -17.09208395	     -0.29831314	      4.59451678	      3.72732911	     -2.94973985	    -16.32606032	      7.76153614	     -0.54701829	    -46.59405982	     -0.81321976	      2.86422465	     17.92896014	     -0.54921822	    -22.54293927	      5.78986792	     -4.12137847	     -2.46152371	    -11.39316730	      3.81461350	     23.19074503	     89.95437384	      0.00000000	      0.00000000	      7.57561780	      7.25334260	     16.72462193	     31.76370166	     89.95437384	      0.00000000	      0.00000000
      0.66000000	     14.33714490	     -4.12217663	      5.10469058	     -0.30479612	      0.95485872	      1.44465175	     -6.29033659	      4.84135568	    -21.70337569	    -16.63737016	     -0.29037689	      5.02015979	      4.06309697	     -2.95721749	    -15.31242316	      7.34828613	     -0.68957433	    -46.97819898	     -0.81992425	      4.61848150	     17.98558999	     -0.47055772	    -22.72636783	      5.42026473	     -3.75562210	     -1.57411226	    -11.56754320	      3.67790767	     24.02111585	     89.95437384	      0.00000000	      0.00000000	      7.21909158	      7.16080864	     16.74885669	     29.90192242	     89.95437384	      0.00000000	      0.00000000
      0.67000000	     14.36846792	     -3.92605541	      4.88067869	     -0.29543286	      0.95559167	      1.44620361	     -7.14407736	      4.81456842	    -21.42699629	    -16.30324573	     -0.28454532	      5.38111754	      4.28565429	     -2.95013776	    -14.20692754	      6.92175388	     -0.84057766	    -47.15398590	     -0.82299231	      5.81101228	     17.92221370	     -0.35851882	    -22.82532589	      5.06895170	     -3.37496461	     -0.68176395	    -11.79058106	      3.52034697	     24.93330877	     89.95437384	      0.00000000	      0.00000000	      6.79162297	      7.06393708	     16.77287281	     28.16410633	     89.95437384	      0.00000000	      0.00000000
      0.68000000	     14.39504886	     -3.68002353	      4.67438938	     -0.28621883	      0.95629466	      1.44755378	     -7.97945475	      4.74469029	    -20.89875362	    -15.93292824	     -0.27808206	      5.67590564	      4.48604493	     -2.89521524	    -13.12411121	      6.33955537	     -1.23286086	    -47.10008338	     -0.82205153	      6.99203044	     17.80677335	     -0.06714642	    -22.93002874	      4.69480490	     -2.95022047	      0.08529355	    -12.06639281	      3.34571639	     26.01671032	     89.95437384	      0.00000000	      0.00000000	      6.55003949	      6.92542779	     16.93609620	     26.11505953	     89.95437384	      0.00000000	      0.00000000
      0.69000000	     14.41548593	     -3.46287556	      4.43424909	     -0.27716752	      0.95682964	      1.44913839	     -8.76740253	      4.66680030	    -20.65299497	    -15.65653634	     -0.27325811	      5.97054749	      4.58454092	     -2.88632764	    -11.91518087	      5.91649030	     -1.25173640	    -47.03841381	     -0.82097520	      7.92010953	     17.78523700	      0.12890702	    -23.03599842	      4.28549915	     -2.60839619	      1.06512443	    -12.26807941	      3.25637401	     26.82373466	     89.95437384	      0.00000000	      0.00000000	      6.06947733	      6.89581618	     16.94993381	     24.52493387	     89.95437384	      0.00000000	      0.00000000
      0.70000000	     14.34747648	     -3.27139618	      4.26827579	     -0.26779346	      0.95704423	      1.45070743	     -9.41241923	      4.59059752	    -20.69301873	    -15.49593585	     -0.27045510	      6.29013521	      4.51147992	     -2.87773217	    -10.60128260	      5.65601902	     -0.99556074	    -46.80462121	     -0.81689475	      8.37884249	     17.72977702	      0.20819212	    -23.00364416	      3.90091638	     -2.46807614	      2.04237455	    -12.41164544	      3.16620626	     27.59932401	     89.95437384	      0.00000000	      0.00000000	      5.27318848	      6.95707596	     16.86626286	     23.32364012	     89.95437384	      0.00000000	      0.00000000
      0.71000000	     14.41056963	     -2.98873601	      4.06956599	     -0.25875270	      0.95750413	      1.45195808	    -10.33652284	      4.47847023	    -20.17437440	    -15.06363524	     -0.26291003	      6.69170591	      4.66150320	     -2.90822773	     -9.52643511	      5.05357970	     -1.30657786	    -46.33474245	     -0.80869381	      9.44432145	     17.59455397	      0.40850400	    -23.11127746	      3.45694926	     -2.09324522	      2.86375645	    -12.68961071	      3.05083414	     28.57920000	     89.95437384	      0.00000000	      0.00000000	      5.05674879	      6.91960176	     16.73926965	     21.28529886	     89.95437384	      0.00000000	      0.00000000
